<?xml version="1.0" encoding="UTF-8"?>
<!-- Generator: Adobe Illustrator 16.0.0, SVG Export Plug-In . SVG Version: 6.00 Build 0)  -->
<!DOCTYPE svg PUBLIC "-//W3C//DTD SVG 1.1//EN" "http://www.w3.org/Graphics/SVG/1.1/DTD/svg11.dtd">
<svg version="1.1" id="Layer_1" xmlns="http://www.w3.org/2000/svg" xmlns:xlink="http://www.w3.org/1999/xlink" x="0px" y="0px" width="244px" height="146px" viewBox="0 0 244 146" enable-background="new 0 0 244 146" xml:space="preserve">
<g>
	
		<linearGradient id="SVGID_1_" gradientUnits="userSpaceOnUse" x1="-406.8389" y1="141.7852" x2="-361.069" y2="58.8572" gradientTransform="matrix(1 0 0 1 580 0)">
		<stop offset="0" style="stop-color:#F1EFEA"/>
		<stop offset="0.6407" style="stop-color:#827A7D"/>
	</linearGradient>
	<path fill="url(#SVGID_1_)" d="M149.644,104.266c-14.469,8.068-22.74,25.451-5.953,33.672   c15.892,7.783,40.824-43.385,77.532-24.033c34.246,18.055,8.979-21.281-44.748-18.031   C159.737,96.885,149.644,104.266,149.644,104.266z"/>
	
		<linearGradient id="SVGID_2_" gradientUnits="userSpaceOnUse" x1="-457.0718" y1="73.7539" x2="-302.1359" y2="209.8358" gradientTransform="matrix(1 0 0 1 580 0)">
		<stop offset="0" style="stop-color:#F1EFEA"/>
		<stop offset="0.6407" style="stop-color:#827A7D"/>
	</linearGradient>
	<path fill="url(#SVGID_2_)" d="M235.689,87.955c-20-22-50.629-56.071-118.453-72.666c-48.079-11.765-109,9-112,30.5   s18,23.5,30,21.5c1.571-0.262,3.685-0.713,6.237-1.294c-3.852,10.426-0.896,21.764,12.18,29.309   c7.634,4.404,18.123,2.529,30.491-1.396c-15.907,14.09-13.741,30.477,8.546,36.205c30.138,7.746,61.826-66.502,141.247-13.402   C235.761,117.93,235.689,87.955,235.689,87.955z"/>
	<g>
		<path fill="#8A8181" d="M227.441,98.803c0,0-0.758-0.385-2.179-1.105c-1.426-0.711-3.495-1.801-6.163-3.11    c-2.652-1.341-5.906-2.899-9.657-4.643c-3.781-1.673-8.019-3.624-12.772-5.415c-4.734-1.833-9.949-3.601-15.586-4.983    c-5.628-1.404-11.648-2.531-17.948-3.167c-6.287-0.651-12.871-0.887-19.494-0.842c-6.619,0.077-13.265,1.214-19.773,2.946    c-6.51,1.738-12.845,4.138-18.991,6.71c-6.15,2.577-12.099,5.383-17.954,7.945c-2.931,1.273-5.851,2.464-8.783,3.471    c-2.937,0.978-5.883,1.858-8.913,2.067C63.225,99.009,57.599,97.569,53,95.169c-4.623-2.394-8.096-5.929-10.161-9.589    c-2.093-3.675-2.765-7.388-2.833-10.365c-0.034-0.749,0.021-1.458,0.034-2.123c0.072-0.663,0.118-1.285,0.198-1.859    c0.096-0.572,0.184-1.101,0.265-1.585c0.111-0.478,0.212-0.912,0.302-1.301c0.167-0.78,0.385-1.355,0.489-1.753    c0.118-0.395,0.178-0.598,0.178-0.598s-0.052,0.206-0.153,0.605c-0.087,0.402-0.281,0.983-0.415,1.769    c-0.329,1.55-0.69,3.881-0.531,6.831c0.157,2.931,0.933,6.533,3.068,10.025c2.101,3.494,5.575,6.742,10.051,8.984    c4.457,2.23,9.949,3.507,15.625,3.084c2.808-0.238,5.66-1.135,8.509-2.142c2.854-1.029,5.712-2.275,8.614-3.565    c5.805-2.58,11.753-5.428,17.931-8.059c6.176-2.627,12.57-5.095,19.19-6.903c6.601-1.804,13.458-3.036,20.235-3.043    c6.755,0.002,13.35,0.293,19.732,1.002c6.372,0.713,12.495,1.837,18.165,3.399c5.679,1.535,10.905,3.444,15.63,5.401    c4.742,1.927,8.972,3.946,12.686,5.797c3.693,1.891,6.891,3.576,9.494,5.02c2.626,1.4,4.631,2.602,6.019,3.386    C226.704,98.38,227.441,98.803,227.441,98.803z"/>
	</g>
	<g>
		
			<linearGradient id="SVGID_3_" gradientUnits="userSpaceOnUse" x1="-438.4282" y1="103.7617" x2="-211.3853" y2="217.6671" gradientTransform="matrix(0.9887 0.1502 -0.1502 0.9887 571.0099 14.6499)">
			<stop offset="0" style="stop-color:#F1EFEA"/>
			<stop offset="0.6407" style="stop-color:#827A7D"/>
		</linearGradient>
		<path fill="url(#SVGID_3_)" d="M203.874,80.516c-24.035-16.297-55.804-30.797-71.566-29.369    c-16.066,1.457-21.508,12.788-18.643,19.911c2.865,7.122,11.738,15.327,41.709,14.547c20.307-0.527,29.633,2.742,29.633,2.742    L203.874,80.516z"/>
		<g>
			<path fill="#8A8181" d="M159.726,59.041c0,0-0.463-0.298-1.355-0.815c-0.891-0.519-2.22-1.242-3.964-2.042     c-3.467-1.595-8.724-3.479-15.254-3.899c-3.248-0.215-6.81-0.06-10.411,0.806c-3.576,0.868-7.254,2.456-10.14,5.176     c-2.883,2.675-4.799,6.561-5.032,10.649c-0.085,1.952,0.539,3.917,1.743,5.522c1.181,1.63,2.845,2.951,4.656,4.027     c3.659,2.141,7.842,3.444,11.984,4.427c4.164,0.965,8.358,1.534,12.428,1.916c4.074,0.372,8.037,0.482,11.784,0.418     c1.873-0.036,3.693-0.139,5.438-0.315c0.874-0.081,1.704-0.231,2.616-0.3c0.88-0.07,1.743-0.097,2.585-0.086     c3.37,0.048,6.405,0.577,9.025,1.247c2.623,0.671,4.847,1.471,6.614,2.271c1.769,0.795,3.08,1.619,3.825,2.357     c0.369,0.367,0.591,0.728,0.623,1.001c0.04,0.274-0.063,0.399-0.051,0.399c-0.012,0.001,0.079-0.133,0.021-0.394     c-0.051-0.26-0.289-0.589-0.675-0.918c-0.777-0.664-2.128-1.361-3.906-2.056c-1.784-0.688-4.021-1.352-6.63-1.863     c-2.609-0.492-5.598-0.894-8.836-0.807c-0.809,0.022-1.631,0.082-2.459,0.183c-0.798,0.094-1.69,0.269-2.585,0.382     c-1.79,0.234-3.644,0.394-5.55,0.487c-3.813,0.201-7.839,0.122-11.99-0.171c-4.152-0.292-8.43-0.876-12.717-1.836     c-4.276-0.972-8.609-2.321-12.552-4.665c-1.952-1.179-3.816-2.647-5.207-4.585c-1.407-1.923-2.145-4.365-1.99-6.75     c0.332-4.576,2.511-8.856,5.753-11.717c3.223-2.896,7.167-4.489,10.93-5.294c3.792-0.79,7.463-0.833,10.787-0.512     c6.67,0.711,11.893,2.849,15.317,4.599c1.717,0.891,3.001,1.701,3.864,2.267C159.28,58.717,159.726,59.041,159.726,59.041z"/>
		</g>
	</g>
	<g>
		<path fill="#8A8181" d="M213.236,83.305c0,0-1.654-0.88-4.756-2.529c-3.107-1.638-7.675-4.022-13.552-6.927    c-5.876-2.905-13.067-6.324-21.454-9.917c-4.195-1.793-8.695-3.613-13.48-5.417c-4.781-1.813-9.859-3.584-15.225-5.207    c-5.363-1.621-11.014-3.112-16.938-4.236c-2.96-0.574-5.989-1.05-9.078-1.39c-3.086-0.355-6.235-0.576-9.425-0.592    c-12.793-0.123-26.235,2.339-39.453,6.848c-6.624,2.233-13.198,4.968-19.8,7.884c-3.305,1.469-6.63,2.946-9.971,4.432    c-1.694,0.733-3.334,1.466-5.12,2.149c-1.859,0.682-3.802,0.935-5.723,0.989c-3.854,0.076-7.647-0.764-11.209-2.141    c-3.554-1.403-6.911-3.41-9.724-6.107c-1.395-1.357-2.632-2.909-3.595-4.646c-0.967-1.733-1.587-3.69-1.79-5.698    c-0.19-2.013,0.111-4.055,0.754-5.941c0.646-1.891,1.63-3.628,2.79-5.197c2.333-3.145,5.288-5.67,8.392-7.872    c3.107-2.213,6.424-4.061,9.794-5.746c6.757-3.353,13.797-5.935,20.851-8.195c3.531-1.122,7.072-2.155,10.615-3.103    c1.771-0.476,3.54-0.944,5.311-1.376c0.895-0.219,1.745-0.446,2.674-0.657l2.655-0.571c7.187-1.485,14.407-1.931,21.484-1.846    c14.174,0.229,27.696,2.941,40.072,6.64c6.191,1.871,12.108,4.014,17.742,6.297c2.826,1.119,5.551,2.346,8.236,3.521    c2.651,1.251,5.275,2.433,7.781,3.721c10.099,5.007,18.978,10.316,26.597,15.374c7.631,5.045,14.025,9.812,19.201,13.844    c5.138,4.083,9.083,7.399,11.729,9.71c2.638,2.32,4.045,3.558,4.045,3.558s-1.429-1.212-4.107-3.485    c-2.686-2.263-6.688-5.508-11.891-9.493c-5.24-3.935-11.708-8.579-19.405-13.474c-7.702-4.882-16.599-10.078-26.692-14.969    c-2.506-1.257-5.128-2.406-7.777-3.624c-2.683-1.143-5.402-2.335-8.223-3.419c-5.62-2.212-11.517-4.281-17.675-6.075    c-6.161-1.782-12.583-3.281-19.21-4.42c-6.627-1.129-13.476-1.855-20.45-1.93c-6.96-0.063-14.085,0.407-21.065,1.875l-2.653,0.58    c-0.839,0.192-1.744,0.435-2.614,0.649c-1.761,0.433-3.517,0.902-5.275,1.379c-3.518,0.949-7.03,1.982-10.527,3.102    c-6.984,2.255-13.943,4.828-20.56,8.131c-3.299,1.658-6.533,3.472-9.522,5.612c-1.505,1.057-2.927,2.213-4.285,3.43    c-1.329,1.245-2.573,2.572-3.638,4.016c-2.145,2.856-3.505,6.313-3.186,9.773c0.304,3.462,2.229,6.648,4.777,9.125    c2.575,2.481,5.725,4.387,9.069,5.713c3.349,1.306,6.93,2.097,10.463,2.032c1.758-0.044,3.517-0.278,5.113-0.862    c1.647-0.624,3.36-1.376,5.022-2.091c3.344-1.474,6.672-2.939,9.979-4.397c6.633-2.904,13.272-5.641,19.975-7.876    c6.696-2.247,13.444-4.014,20.159-5.162c6.703-1.163,13.406-1.653,19.879-1.543c3.251,0.048,6.447,0.304,9.572,0.695    c3.128,0.375,6.187,0.887,9.169,1.496c5.973,1.194,11.647,2.752,17.025,4.436c10.763,3.369,20.326,7.303,28.669,11.037    c8.341,3.748,15.478,7.296,21.307,10.305c5.829,3.009,10.355,5.473,13.435,7.165C211.598,82.396,213.236,83.305,213.236,83.305z"/>
	</g>
	<g>
		<path fill="#8A8181" d="M236.903,116.711c0,0-0.699-0.404-2.012-1.163c-1.313-0.754-3.275-1.799-5.794-3.076    c-2.523-1.269-5.628-2.728-9.257-4.237c-3.632-1.497-7.787-3.046-12.386-4.514c-4.609-1.426-9.675-2.76-15.117-3.661    c-2.719-0.457-5.527-0.825-8.409-1.02c-2.877-0.216-5.828-0.337-8.817-0.2c-2.988,0.124-6.016,0.438-9.033,0.998    c-3.028,0.556-5.984,1.438-8.946,2.523c-5.904,2.186-11.686,5.023-17.343,8.08c-5.672,3.043-11.212,6.356-16.73,9.547    c-5.523,3.175-11.023,6.28-16.744,8.553c-2.855,1.13-5.782,2.04-8.76,2.454c-2.966,0.429-5.992,0.351-8.786-0.414    c-2.805-0.739-5.287-2.184-7.356-3.885c-2.071-1.719-3.757-3.692-5.179-5.697c-0.707-1.014-1.388-1.974-1.942-3.087    c-0.525-1.1-0.858-2.256-1-3.398c-0.29-2.292,0.076-4.461,0.639-6.376c1.172-3.845,3.03-6.816,4.618-9.157    c1.613-2.339,3.081-4.022,4.089-5.154c1.017-1.126,1.599-1.688,1.599-1.688s-0.556,0.588-1.517,1.759    c-0.959,1.17-2.318,2.932-3.847,5.298c-1.494,2.372-3.225,5.386-4.225,9.141c-0.48,1.867-0.746,3.941-0.403,6.04    c0.173,1.045,0.491,2.087,0.988,3.072c0.497,0.955,1.209,1.933,1.909,2.89c1.419,1.919,3.084,3.78,5.074,5.364    c1.991,1.567,4.319,2.854,6.917,3.48c2.589,0.65,5.386,0.671,8.177,0.211c2.794-0.464,5.598-1.338,8.365-2.456    c5.543-2.243,10.971-5.35,16.451-8.551c5.478-3.217,11.015-6.58,16.718-9.689c5.704-3.105,11.599-5.902,17.646-8.109    c3.018-1.084,6.139-1.99,9.254-2.537c3.121-0.557,6.238-0.855,9.305-0.96c6.14-0.198,12.061,0.431,17.552,1.499    c5.502,1.036,10.591,2.497,15.209,4.039c9.24,3.113,16.503,6.789,21.474,9.489c2.485,1.36,4.385,2.521,5.666,3.333    C236.224,116.272,236.903,116.711,236.903,116.711z"/>
	</g>
	<g>
		<path fill="#8A8181" d="M144.675,107.998c0,0-0.417,0.289-1.199,0.831c-0.756,0.572-1.86,1.424-3.09,2.684    c-1.215,1.264-2.542,2.965-3.552,5.171c-1.015,2.203-1.7,4.877-1.964,7.851c-0.024,0.372-0.049,0.749-0.073,1.129l-0.019,0.286    l0.001,0.259c0.007,0.191-0.005,0.405,0.016,0.58c0.051,0.675,0.235,1.435,0.469,2.154c0.516,1.443,1.354,2.845,2.481,4.043    c2.225,2.423,5.558,4.029,9.15,4.217c3.604,0.22,7.349-0.841,10.801-2.571c3.473-1.753,6.665-4.124,9.687-6.798l2.329-1.965    l2.416-1.913c1.628-1.234,3.282-2.421,4.969-3.535c3.377-2.222,6.892-4.124,10.425-5.671c3.527-1.563,7.111-2.683,10.58-3.396    c3.465-0.737,6.828-0.996,9.915-0.888c6.203,0.165,11.165,2.023,14.253,3.781c1.561,0.882,2.664,1.759,3.398,2.364    c0.718,0.628,1.084,0.979,1.084,0.979s-0.393-0.324-1.15-0.895c-0.769-0.558-1.938-1.315-3.511-2.11    c-3.134-1.588-8.076-3.058-14.09-2.989c-2.999,0.013-6.241,0.402-9.582,1.197c-3.346,0.778-6.777,1.989-10.187,3.55    c-3.414,1.556-6.79,3.49-10.072,5.681c-1.641,1.098-3.251,2.268-4.838,3.483l-2.335,1.869l-2.31,1.973    c-3.047,2.702-6.445,5.188-10.12,7.018c-3.666,1.834-7.771,2.926-11.79,2.614c-4.015-0.261-7.765-2.173-10.162-4.97    c-1.224-1.38-2.121-2.973-2.66-4.635c-0.249-0.847-0.421-1.67-0.451-2.579c-0.013-0.22,0.007-0.401,0.009-0.602l0.012-0.327    l0.032-0.296c0.043-0.394,0.085-0.783,0.127-1.168c0.216-1.537,0.502-3.001,0.915-4.358c0.432-1.351,0.932-2.604,1.538-3.714    c1.188-2.233,2.659-3.9,3.972-5.113c1.32-1.219,2.515-1.971,3.314-2.487C144.236,108.253,144.675,107.998,144.675,107.998z"/>
	</g>
	<g>
		
			<linearGradient id="SVGID_4_" gradientUnits="userSpaceOnUse" x1="-453.2739" y1="46.8271" x2="-256.4998" y2="145.547" gradientTransform="matrix(0.9934 -0.1149 0.1149 0.9934 575.4662 -18.3331)">
			<stop offset="0" style="stop-color:#F1EFEA"/>
			<stop offset="0.6407" style="stop-color:#827A7D"/>
		</linearGradient>
		<path fill="url(#SVGID_4_)" d="M201.2,89.957c-15.586-15.706-45.363-22.727-59.889-15.711    c-14.527,7.016-17.393,17.991-12.758,24.11c4.637,6.119,11.631,10.744,44.067,3.078c19.77-4.674,29.313-5.141,29.313-5.141    L201.2,89.957z"/>
		<g>
			<path fill="#8A8181" d="M186.894,79.674c0,0-0.557-0.279-1.602-0.802c-1.054-0.501-2.594-1.248-4.61-2.069     c-4.006-1.652-9.928-3.776-17.313-4.606c-3.681-0.386-7.718-0.484-11.903,0.112c-4.174,0.584-8.514,1.85-12.488,4.105     c-3.957,2.229-7.576,5.528-9.651,9.76c-1.04,2.098-1.669,4.412-1.744,6.761c-0.027,1.177,0.05,2.354,0.321,3.479     c0.253,1.089,0.745,2.137,1.405,3.043c1.333,1.829,3.397,3.075,5.609,3.878c2.222,0.813,4.604,1.234,6.984,1.457     c4.772,0.441,9.566,0.207,14.151-0.346c4.591-0.556,8.998-1.421,13.111-2.468c4.13-1.033,7.941-2.196,11.376-3.669     c3.606-1.353,7.075-1.849,10.133-2.032c3.064-0.162,5.736-0.014,7.913,0.276c2.175,0.288,3.865,0.74,4.919,1.285     c0.525,0.269,0.888,0.577,1.026,0.855c0.144,0.281,0.066,0.452,0.079,0.447c-0.012,0.006,0.05-0.172-0.109-0.431     c-0.153-0.256-0.522-0.526-1.054-0.748c-1.067-0.445-2.756-0.769-4.911-0.943c-2.157-0.163-4.799-0.159-7.788,0.171     c-2.974,0.344-6.359,0.914-9.715,2.324c-3.388,1.585-7.289,2.968-11.438,4.108c-4.171,1.112-8.633,2.042-13.31,2.663     c-4.673,0.599-9.577,0.964-14.579,0.476c-2.493-0.264-5.018-0.731-7.452-1.651c-2.413-0.909-4.81-2.35-6.412-4.595     c-0.792-1.116-1.365-2.374-1.662-3.713c-0.292-1.302-0.373-2.627-0.333-3.927c0.1-2.616,0.818-5.173,1.969-7.457     c2.359-4.58,6.292-7.982,10.476-10.239c4.209-2.28,8.723-3.494,13.023-4.012c4.312-0.529,8.435-0.362,12.161,0.17     c7.473,1.083,13.356,3.405,17.32,5.2c1.986,0.908,3.497,1.723,4.53,2.268C186.349,79.371,186.894,79.674,186.894,79.674z"/>
		</g>
	</g>
	<g>
		
			<linearGradient id="SVGID_5_" gradientUnits="userSpaceOnUse" x1="-434.4795" y1="46.5674" x2="-268.7133" y2="129.7308" gradientTransform="matrix(0.9893 -0.1459 0.1459 0.9893 581.5669 -11.6796)">
			<stop offset="0" style="stop-color:#F1EFEA"/>
			<stop offset="0.6407" style="stop-color:#827A7D"/>
		</linearGradient>
		<path fill="url(#SVGID_5_)" d="M218.106,104.549c-13.539-12.814-38.796-17.941-50.842-11.65    c-12.047,6.291-14.17,15.607-10.105,20.637c4.064,5.031,21.109,7.293,37.186,1.428c16.076-5.863,24.546-5.1,24.546-5.1    L218.106,104.549z"/>
		<g>
			<path fill="#8A8181" d="M191.296,92.492c0,0-0.451-0.107-1.297-0.311c-0.848-0.198-2.096-0.435-3.697-0.65     c-3.188-0.406-7.878-0.607-13.228,0.672c-2.66,0.643-5.476,1.651-8.151,3.231c-2.646,1.591-5.194,3.77-6.823,6.65     c-1.641,2.842-2.21,6.405-1.405,9.718c0.408,1.559,1.377,2.953,2.72,3.93c1.331,1.003,2.979,1.649,4.69,2.064     c3.449,0.813,7.127,0.83,10.696,0.604c3.582-0.247,7.095-0.822,10.463-1.511c3.369-0.697,6.584-1.583,9.585-2.547     c1.499-0.486,2.938-1.013,4.298-1.58c0.684-0.278,1.311-0.601,2.038-0.881c0.695-0.273,1.388-0.506,2.072-0.702     c2.739-0.786,5.32-1.1,7.602-1.194c2.283-0.095,4.273,0.013,5.896,0.229c1.621,0.211,2.881,0.563,3.662,0.979     c0.389,0.208,0.654,0.445,0.747,0.66c0.099,0.212,0.045,0.338,0.056,0.335c-0.01,0.004,0.03-0.127-0.082-0.321     c-0.107-0.195-0.381-0.398-0.772-0.565c-0.791-0.336-2.051-0.554-3.653-0.667c-1.604-0.105-3.567-0.078-5.791,0.166     c-2.218,0.26-4.718,0.683-7.291,1.559c-0.643,0.219-1.286,0.471-1.925,0.758c-0.648,0.311-1.311,0.628-1.982,0.95     c-1.386,0.636-2.841,1.226-4.354,1.777c-3.023,1.114-6.29,2.048-9.71,2.844c-3.42,0.798-7.016,1.383-10.715,1.671     c-3.694,0.276-7.529,0.259-11.309-0.664c-1.877-0.473-3.759-1.202-5.381-2.438c-1.631-1.221-2.848-3.038-3.316-5.031     c-0.854-3.81-0.147-7.825,1.782-10.949c1.9-3.147,4.701-5.409,7.544-6.996c2.879-1.563,5.834-2.497,8.597-3.06     c5.568-1.043,10.301-0.589,13.493-0.021c1.6,0.311,2.839,0.645,3.67,0.895C190.854,92.354,191.296,92.492,191.296,92.492z"/>
		</g>
	</g>
	<g>
		
			<linearGradient id="SVGID_6_" gradientUnits="userSpaceOnUse" x1="-351.8511" y1="170.0977" x2="-199.0053" y2="246.779" gradientTransform="matrix(0.9573 0.2892 -0.2892 0.9573 566.1621 16.9785)">
			<stop offset="0" style="stop-color:#F1EFEA"/>
			<stop offset="0.6407" style="stop-color:#827A7D"/>
		</linearGradient>
		<path fill="url(#SVGID_6_)" d="M226.752,107.313c-5.877-16.959-24.566-31.68-37.073-30.83c-12.51,0.85-18.091,8.395-16.813,14.553    c1.277,6.156,14.381,15.014,30.031,16.16c15.652,1.146,22.313,5.221,22.313,5.221L226.752,107.313z"/>
		<g>
			<path fill="#8A8181" d="M210.002,83.803c0,0-0.331-0.279-0.951-0.803c-0.624-0.521-1.573-1.231-2.834-2.058     c-1.272-0.805-2.871-1.702-4.811-2.475c-1.938-0.764-4.208-1.444-6.743-1.733c-2.523-0.324-5.315-0.309-8.141,0.307     c-2.821,0.587-5.684,1.813-8.065,3.794c-2.381,1.965-4.204,4.74-5.045,7.837c-0.399,1.511-0.365,3.076,0.159,4.519     c0.511,1.447,1.479,2.752,2.647,3.874c2.369,2.246,5.42,3.824,8.477,5.118c3.082,1.284,6.268,2.209,9.377,2.978     c3.114,0.76,6.182,1.268,9.097,1.624c1.459,0.169,2.883,0.287,4.256,0.328c0.688,0.028,1.344,0.007,2.054,0.02     c0.709,0.02,1.388,0.084,2.052,0.174c2.648,0.37,4.968,1.124,6.931,1.966c1.966,0.841,3.595,1.752,4.861,2.61     c1.27,0.854,2.168,1.688,2.628,2.379c0.229,0.345,0.33,0.663,0.314,0.879c-0.017,0.217-0.103,0.302-0.095,0.304     c-0.008-0.001,0.068-0.097,0.063-0.304c-0.006-0.207-0.131-0.498-0.383-0.807c-0.506-0.62-1.462-1.334-2.756-2.088     c-1.299-0.748-2.96-1.522-4.931-2.199c-1.972-0.659-4.254-1.282-6.771-1.496c-1.264-0.134-2.518-0.018-3.985,0.001     c-1.426,0.012-2.893-0.055-4.395-0.172c-3.006-0.229-6.145-0.725-9.356-1.415s-6.484-1.659-9.711-2.96     c-3.21-1.313-6.427-2.985-9.086-5.537c-1.309-1.278-2.47-2.825-3.093-4.649c-0.625-1.82-0.605-3.843-0.088-5.608     c1.003-3.473,3.087-6.521,5.78-8.606c2.68-2.098,5.796-3.338,8.809-3.85c3.02-0.536,5.936-0.439,8.54,0     c2.611,0.439,4.905,1.263,6.842,2.146c1.938,0.894,3.512,1.89,4.753,2.771c1.22,0.912,2.121,1.705,2.706,2.265     C209.691,83.501,210.002,83.803,210.002,83.803z"/>
		</g>
	</g>
</g>
</svg>