<?xml version="1.0" encoding="UTF-8"?>
<!-- Generator: Adobe Illustrator 16.0.0, SVG Export Plug-In . SVG Version: 6.00 Build 0)  -->
<!DOCTYPE svg PUBLIC "-//W3C//DTD SVG 1.1//EN" "http://www.w3.org/Graphics/SVG/1.1/DTD/svg11.dtd">
<svg version="1.1" id="Layer_1" xmlns="http://www.w3.org/2000/svg" xmlns:xlink="http://www.w3.org/1999/xlink" x="0px" y="0px" width="244px" height="146px" viewBox="0 0 244 146" enable-background="new 0 0 244 146" xml:space="preserve">
<g>
	
		<linearGradient id="SVGID_1_" gradientUnits="userSpaceOnUse" x1="-406.8384" y1="141.7842" x2="-361.0691" y2="58.8571" gradientTransform="matrix(-1 0 0 1 -339.2256 0)">
		<stop offset="0" style="stop-color:#F1EFEA"/>
		<stop offset="0.6407" style="stop-color:#827A7D"/>
	</linearGradient>
	<path fill="url(#SVGID_1_)" d="M91.131,104.266c14.469,8.068,22.74,25.451,5.953,33.672c-15.892,7.783-40.824-43.385-77.532-24.033   c-34.246,18.055-8.978-21.281,44.748-18.031C81.037,96.885,91.131,104.266,91.131,104.266z"/>
	
		<linearGradient id="SVGID_2_" gradientUnits="userSpaceOnUse" x1="-457.0728" y1="73.7529" x2="-302.1376" y2="209.8342" gradientTransform="matrix(-1 0 0 1 -339.2256 0)">
		<stop offset="0" style="stop-color:#F1EFEA"/>
		<stop offset="0.6407" style="stop-color:#827A7D"/>
	</linearGradient>
	<path fill="url(#SVGID_2_)" d="M5.085,87.955c20-22,50.628-56.071,118.453-72.666c48.079-11.765,109,9,112,30.5s-18,23.5-30,21.5   c-1.571-0.262-3.685-0.713-6.237-1.294c3.852,10.426,0.896,21.764-12.18,29.309c-7.634,4.404-18.123,2.529-30.491-1.396   c15.907,14.09,13.741,30.477-8.546,36.205c-30.138,7.746-61.826-66.502-141.248-13.402C5.014,117.93,5.085,87.955,5.085,87.955z"/>
	<g>
		<path fill="#8A8181" d="M13.333,98.803c0,0,0.737-0.424,2.119-1.217c1.388-0.783,3.393-1.984,6.019-3.386    c2.604-1.443,5.801-3.128,9.495-5.02c3.713-1.85,7.943-3.87,12.685-5.796c4.725-1.957,9.951-3.866,15.63-5.402    c5.67-1.561,11.793-2.685,18.165-3.398c6.384-0.708,12.978-1,19.732-1.002c6.777,0.007,13.635,1.24,20.235,3.043    c6.619,1.809,13.014,4.277,19.189,6.904c6.178,2.63,12.127,5.479,17.932,8.059c2.901,1.289,5.76,2.535,8.613,3.564    c2.85,1.008,5.701,1.904,8.509,2.143c5.676,0.422,11.168-0.854,15.625-3.085c4.477-2.242,7.95-5.489,10.051-8.984    c2.136-3.491,2.911-7.095,3.067-10.025c0.16-2.95-0.202-5.281-0.53-6.831c-0.134-0.785-0.328-1.366-0.415-1.769    c-0.102-0.399-0.153-0.605-0.153-0.605s0.061,0.204,0.178,0.598c0.104,0.398,0.322,0.973,0.489,1.753    c0.09,0.389,0.191,0.823,0.302,1.301c0.081,0.485,0.17,1.014,0.265,1.585c0.081,0.574,0.127,1.196,0.198,1.859    c0.015,0.665,0.068,1.374,0.035,2.123c-0.068,2.979-0.74,6.69-2.833,10.365c-2.064,3.66-5.538,7.195-10.16,9.589    c-4.599,2.401-10.225,3.841-16.228,3.509c-3.029-0.209-5.976-1.09-8.912-2.068c-2.933-1.007-5.853-2.197-8.783-3.471    c-5.854-2.563-11.804-5.368-17.954-7.944c-6.146-2.573-12.48-4.973-18.991-6.71c-6.508-1.733-13.153-2.87-19.772-2.947    c-6.624-0.045-13.208,0.19-19.495,0.842c-6.3,0.636-12.32,1.763-17.948,3.166c-5.636,1.384-10.852,3.15-15.586,4.984    c-4.753,1.791-8.991,3.742-12.772,5.414c-3.751,1.743-7.005,3.303-9.657,4.643c-2.668,1.31-4.737,2.4-6.163,3.11    C14.091,98.418,13.333,98.803,13.333,98.803z"/>
	</g>
	<g>
		
			<linearGradient id="SVGID_3_" gradientUnits="userSpaceOnUse" x1="-438.4297" y1="103.7617" x2="-211.3842" y2="217.6684" gradientTransform="matrix(-0.9887 0.1502 0.1502 0.9887 -330.2355 14.6499)">
			<stop offset="0" style="stop-color:#F1EFEA"/>
			<stop offset="0.6407" style="stop-color:#827A7D"/>
		</linearGradient>
		<path fill="url(#SVGID_3_)" d="M36.9,80.516c24.035-16.297,55.804-30.797,71.566-29.369c16.066,1.457,21.508,12.788,18.643,19.911    c-2.865,7.122-11.738,15.327-41.709,14.547c-20.307-0.527-29.633,2.742-29.633,2.742L36.9,80.516z"/>
		<g>
			<path fill="#8A8181" d="M81.049,59.041c0,0,0.445-0.324,1.309-0.891c0.863-0.566,2.148-1.376,3.864-2.267     c3.425-1.75,8.647-3.888,15.317-4.599c3.323-0.321,6.996-0.278,10.787,0.512c3.762,0.806,7.706,2.398,10.93,5.295     c3.242,2.86,5.421,7.14,5.752,11.717c0.155,2.385-0.582,4.826-1.989,6.75c-1.392,1.938-3.256,3.406-5.208,4.586     c-3.942,2.343-8.275,3.693-12.552,4.664c-4.288,0.959-8.565,1.544-12.717,1.836c-4.151,0.293-8.178,0.371-11.991,0.172     c-1.906-0.095-3.76-0.254-5.549-0.488c-0.896-0.113-1.787-0.287-2.585-0.381c-0.829-0.102-1.65-0.16-2.459-0.184     c-3.238-0.086-6.228,0.314-8.836,0.807c-2.61,0.512-4.847,1.176-6.63,1.863c-1.778,0.695-3.129,1.393-3.906,2.056     c-0.386,0.329-0.624,0.659-0.675,0.919c-0.059,0.26,0.032,0.395,0.021,0.393c0.013,0-0.091-0.125-0.051-0.398     c0.032-0.274,0.254-0.634,0.623-1.002c0.744-0.738,2.057-1.563,3.824-2.357c1.768-0.799,3.991-1.6,6.614-2.271     c2.621-0.669,5.656-1.198,9.026-1.246c0.842-0.011,1.704,0.016,2.584,0.087c0.913,0.068,1.742,0.218,2.617,0.3     c1.745,0.176,3.564,0.278,5.438,0.314c3.747,0.064,7.71-0.046,11.783-0.418c4.071-0.382,8.266-0.951,12.429-1.916     c4.143-0.982,8.325-2.285,11.984-4.426c1.812-1.076,3.476-2.397,4.657-4.028c1.203-1.604,1.827-3.57,1.742-5.521     c-0.232-4.089-2.148-7.974-5.031-10.649c-2.886-2.72-6.563-4.308-10.141-5.176c-3.601-0.866-7.162-1.021-10.409-0.806     c-6.531,0.42-11.788,2.305-15.255,3.899c-1.744,0.8-3.073,1.524-3.964,2.042C81.512,58.742,81.049,59.041,81.049,59.041z"/>
		</g>
	</g>
	<g>
		<path fill="#8A8181" d="M27.538,83.305c0,0,1.639-0.909,4.711-2.613c3.079-1.691,7.605-4.156,13.435-7.165    c5.829-3.009,12.966-6.557,21.307-10.305c8.343-3.734,17.906-7.668,28.669-11.037c5.379-1.684,11.053-3.241,17.025-4.436    c2.983-0.609,6.042-1.121,9.17-1.496c3.124-0.391,6.32-0.647,9.571-0.695c6.474-0.11,13.176,0.38,19.879,1.542    c6.716,1.148,13.463,2.916,20.159,5.162c6.702,2.236,13.342,4.972,19.976,7.876c3.308,1.458,6.635,2.923,9.979,4.397    c1.661,0.714,3.374,1.467,5.021,2.091c1.597,0.583,3.355,0.817,5.112,0.861c3.533,0.065,7.114-0.727,10.463-2.032    c3.345-1.326,6.495-3.231,9.07-5.713c2.548-2.477,4.473-5.662,4.777-9.125c0.319-3.46-1.041-6.917-3.187-9.773    c-1.065-1.444-2.309-2.771-3.638-4.016c-1.358-1.217-2.78-2.374-4.285-3.43c-2.988-2.141-6.223-3.954-9.521-5.612    c-6.617-3.303-13.576-5.876-20.56-8.131c-3.497-1.12-7.01-2.153-10.527-3.102c-1.759-0.477-3.514-0.946-5.274-1.379    c-0.871-0.215-1.776-0.457-2.614-0.649l-2.653-0.58c-6.98-1.467-14.105-1.938-21.065-1.875c-6.974,0.075-13.822,0.801-20.449,1.93    c-6.628,1.139-13.049,2.638-19.211,4.42c-6.158,1.794-12.055,3.863-17.675,6.075c-2.82,1.083-5.54,2.276-8.223,3.419    c-2.649,1.218-5.271,2.367-7.777,3.624c-10.094,4.891-18.99,10.087-26.692,14.969c-7.697,4.895-14.165,9.539-19.405,13.474    c-5.202,3.986-9.205,7.231-11.891,9.494c-2.679,2.273-4.107,3.485-4.107,3.485s1.407-1.237,4.045-3.558    c2.646-2.311,6.592-5.628,11.729-9.71c5.175-4.032,11.57-8.799,19.201-13.844c7.619-5.058,16.498-10.367,26.597-15.374    c2.506-1.289,5.13-2.47,7.781-3.721c2.686-1.176,5.41-2.403,8.236-3.521c5.634-2.282,11.551-4.425,17.742-6.296    c12.376-3.699,25.898-6.411,40.072-6.641c7.077-0.085,14.297,0.361,21.484,1.846l2.654,0.571c0.93,0.21,1.778,0.438,2.674,0.657    c1.771,0.432,3.54,0.9,5.311,1.376c3.543,0.948,7.085,1.98,10.615,3.103c7.054,2.26,14.094,4.842,20.851,8.195    c3.37,1.685,6.688,3.533,9.795,5.746c3.104,2.201,6.059,4.727,8.392,7.872c1.16,1.568,2.145,3.305,2.79,5.197    c0.644,1.886,0.944,3.928,0.754,5.94c-0.202,2.008-0.822,3.965-1.789,5.698c-0.964,1.737-2.2,3.289-3.596,4.646    c-2.813,2.697-6.17,4.704-9.724,6.107c-3.563,1.377-7.355,2.217-11.209,2.141c-1.921-0.054-3.864-0.307-5.723-0.989    c-1.786-0.683-3.426-1.416-5.12-2.149c-3.342-1.485-6.666-2.963-9.971-4.432c-6.603-2.916-13.178-5.65-19.801-7.884    c-13.218-4.509-26.659-6.971-39.453-6.848c-3.189,0.016-6.338,0.236-9.425,0.592c-3.089,0.339-6.118,0.815-9.078,1.389    c-5.925,1.124-11.574,2.615-16.938,4.236c-5.365,1.622-10.442,3.394-15.225,5.207c-4.784,1.804-9.285,3.624-13.479,5.417    c-8.388,3.594-15.579,7.013-21.455,9.917c-5.877,2.905-10.444,5.289-13.552,6.927C29.192,82.424,27.538,83.305,27.538,83.305z"/>
	</g>
	<g>
		<path fill="#8A8181" d="M3.871,116.711c0,0,0.679-0.438,1.953-1.259c1.281-0.813,3.181-1.974,5.666-3.333    c4.971-2.701,12.234-6.377,21.473-9.49c4.619-1.541,9.707-3.002,15.209-4.039c5.491-1.068,11.412-1.697,17.552-1.499    c3.066,0.104,6.184,0.403,9.305,0.96c3.115,0.547,6.236,1.453,9.254,2.538c6.047,2.207,11.942,5.003,17.646,8.108    c5.703,3.109,11.24,6.473,16.719,9.689c5.479,3.201,10.907,6.309,16.45,8.551c2.768,1.118,5.57,1.992,8.364,2.456    c2.791,0.46,5.589,0.44,8.178-0.21c2.598-0.629,4.926-1.914,6.917-3.482c1.99-1.583,3.655-3.445,5.074-5.363    c0.7-0.957,1.412-1.935,1.909-2.891c0.498-0.984,0.815-2.027,0.988-3.072c0.343-2.098,0.077-4.172-0.403-6.039    c-1.001-3.755-2.731-6.77-4.225-9.141c-1.53-2.367-2.888-4.129-3.848-5.299c-0.961-1.17-1.517-1.758-1.517-1.758    s0.583,0.561,1.599,1.688c1.009,1.131,2.476,2.814,4.089,5.154c1.588,2.341,3.446,5.313,4.618,9.156    c0.563,1.916,0.93,4.084,0.639,6.377c-0.141,1.143-0.475,2.299-0.999,3.397c-0.554,1.114-1.235,2.074-1.942,3.087    c-1.421,2.006-3.107,3.979-5.178,5.697c-2.07,1.702-4.552,3.146-7.356,3.886c-2.794,0.765-5.819,0.843-8.786,0.415    c-2.978-0.415-5.904-1.324-8.76-2.455c-5.721-2.271-11.221-5.377-16.744-8.553c-5.519-3.19-11.059-6.504-16.73-9.547    c-5.657-3.057-11.438-5.895-17.343-8.079c-2.962-1.085-5.918-1.968-8.946-2.524c-3.018-0.561-6.045-0.874-9.033-0.998    c-2.989-0.137-5.94-0.016-8.817,0.201c-2.882,0.193-5.69,0.563-8.409,1.02c-5.442,0.9-10.508,2.234-15.117,3.66    c-4.599,1.469-8.753,3.017-12.386,4.514c-3.628,1.51-6.733,2.97-9.257,4.238c-2.519,1.277-4.48,2.321-5.793,3.075    C4.571,116.307,3.871,116.711,3.871,116.711z"/>
	</g>
	<g>
		<path fill="#8A8181" d="M96.1,107.998c0,0,0.438,0.255,1.262,0.733c0.8,0.517,1.994,1.269,3.313,2.487    c1.313,1.213,2.785,2.88,3.973,5.113c0.605,1.109,1.106,2.363,1.537,3.713c0.413,1.358,0.7,2.822,0.916,4.359    c0.042,0.385,0.084,0.774,0.127,1.168l0.032,0.295l0.012,0.328c0.002,0.2,0.021,0.381,0.009,0.602    c-0.03,0.908-0.202,1.732-0.451,2.579c-0.539,1.661-1.437,3.255-2.659,4.634c-2.398,2.799-6.148,4.709-10.163,4.971    c-4.019,0.313-8.124-0.781-11.789-2.613c-3.676-1.83-7.074-4.316-10.12-7.019l-2.311-1.972l-2.335-1.869    c-1.586-1.217-3.197-2.387-4.838-3.484c-3.282-2.189-6.657-4.125-10.071-5.68c-3.41-1.561-6.842-2.772-10.188-3.551    c-3.341-0.795-6.583-1.185-9.582-1.197c-6.014-0.068-10.957,1.402-14.09,2.99c-1.573,0.794-2.743,1.553-3.511,2.109    c-0.757,0.571-1.15,0.895-1.15,0.895s0.367-0.35,1.084-0.979c0.734-0.605,1.837-1.482,3.397-2.363    c3.088-1.759,8.05-3.617,14.253-3.783c3.086-0.107,6.451,0.152,9.915,0.889c3.469,0.713,7.053,1.832,10.58,3.395    c3.533,1.548,7.049,3.449,10.425,5.672c1.687,1.113,3.341,2.301,4.969,3.535l2.417,1.912l2.328,1.966    c3.021,2.675,6.214,5.046,9.687,6.798c3.452,1.73,7.197,2.791,10.801,2.57c3.594-0.188,6.926-1.793,9.15-4.216    c1.128-1.198,1.966-2.599,2.481-4.044c0.233-0.719,0.418-1.479,0.469-2.154c0.021-0.174,0.009-0.389,0.016-0.579l0.001-0.259    l-0.019-0.286c-0.024-0.38-0.049-0.757-0.073-1.13c-0.264-2.973-0.95-5.646-1.964-7.85c-1.01-2.207-2.337-3.907-3.552-5.172    c-1.229-1.259-2.334-2.111-3.09-2.683C96.517,108.287,96.1,107.998,96.1,107.998z"/>
	</g>
	<g>
		
			<linearGradient id="SVGID_4_" gradientUnits="userSpaceOnUse" x1="-453.2744" y1="46.8271" x2="-256.5002" y2="145.547" gradientTransform="matrix(-0.9934 -0.1149 -0.1149 0.9934 -334.6918 -18.3331)">
			<stop offset="0" style="stop-color:#F1EFEA"/>
			<stop offset="0.6407" style="stop-color:#827A7D"/>
		</linearGradient>
		<path fill="url(#SVGID_4_)" d="M39.574,89.957C55.16,74.251,84.938,67.23,99.463,74.246c14.527,7.016,17.393,17.991,12.758,24.11    c-4.637,6.119-11.631,10.744-44.067,3.078c-19.77-4.674-29.313-5.141-29.313-5.141L39.574,89.957z"/>
		<g>
			<path fill="#8A8181" d="M53.881,79.674c0,0,0.545-0.302,1.565-0.869c1.033-0.545,2.544-1.359,4.53-2.268     c3.964-1.795,9.848-4.117,17.32-5.2c3.727-0.532,7.85-0.699,12.161-0.17c4.301,0.519,8.814,1.732,13.023,4.013     c4.185,2.256,8.117,5.658,10.476,10.238c1.152,2.284,1.869,4.842,1.97,7.457c0.04,1.301-0.04,2.625-0.333,3.927     c-0.296,1.339-0.869,2.597-1.661,3.714c-1.603,2.244-3.999,3.685-6.412,4.594c-2.435,0.92-4.959,1.388-7.452,1.652     c-5.002,0.487-9.906,0.122-14.579-0.476c-4.677-0.621-9.139-1.552-13.309-2.664c-4.15-1.14-8.052-2.522-11.438-4.107     c-3.355-1.411-6.742-1.981-9.716-2.325c-2.988-0.33-5.631-0.334-7.788-0.17c-2.155,0.174-3.843,0.496-4.91,0.942     c-0.531,0.222-0.901,0.491-1.055,0.747c-0.159,0.26-0.098,0.438-0.109,0.432c0.013,0.004-0.064-0.166,0.079-0.448     c0.139-0.278,0.501-0.587,1.026-0.854c1.055-0.545,2.744-0.997,4.92-1.285c2.176-0.289,4.849-0.438,7.913-0.275     c3.058,0.184,6.526,0.68,10.132,2.031c3.436,1.473,7.246,2.637,11.376,3.67c4.114,1.047,8.521,1.912,13.111,2.467     c4.586,0.554,9.379,0.787,14.151,0.346c2.38-0.223,4.764-0.644,6.985-1.456c2.212-0.804,4.275-2.05,5.608-3.879     c0.659-0.905,1.151-1.954,1.404-3.042c0.271-1.125,0.349-2.303,0.321-3.479c-0.076-2.35-0.705-4.664-1.745-6.762     c-2.074-4.23-5.693-7.531-9.65-9.76c-3.976-2.255-8.314-3.521-12.488-4.105c-4.186-0.596-8.223-0.499-11.903-0.112     c-7.386,0.83-13.307,2.953-17.313,4.606c-2.017,0.82-3.557,1.567-4.61,2.069C54.438,79.396,53.881,79.674,53.881,79.674z"/>
		</g>
	</g>
	<g>
		
			<linearGradient id="SVGID_5_" gradientUnits="userSpaceOnUse" x1="-434.4785" y1="46.5674" x2="-268.7149" y2="129.7295" gradientTransform="matrix(-0.9893 -0.1459 -0.1459 0.9893 -340.7924 -11.6796)">
			<stop offset="0" style="stop-color:#F1EFEA"/>
			<stop offset="0.6407" style="stop-color:#827A7D"/>
		</linearGradient>
		<path fill="url(#SVGID_5_)" d="M22.668,104.549c13.539-12.814,38.796-17.941,50.842-11.65    c12.047,6.291,14.17,15.607,10.105,20.637c-4.064,5.031-21.109,7.293-37.186,1.428c-16.076-5.863-24.545-5.1-24.545-5.1    L22.668,104.549z"/>
		<g>
			<path fill="#8A8181" d="M49.479,92.492c0,0,0.442-0.137,1.272-0.396c0.831-0.25,2.07-0.584,3.67-0.895     c3.192-0.567,7.925-1.021,13.493,0.021c2.763,0.563,5.718,1.496,8.597,3.061c2.843,1.586,5.644,3.848,7.544,6.995     c1.93,3.124,2.636,7.14,1.782,10.95c-0.469,1.992-1.686,3.809-3.316,5.03c-1.622,1.235-3.504,1.965-5.381,2.437     c-3.779,0.924-7.614,0.941-11.309,0.666c-3.699-0.289-7.295-0.874-10.716-1.672c-3.42-0.796-6.686-1.729-9.709-2.844     c-1.514-0.551-2.969-1.141-4.354-1.777c-0.673-0.322-1.334-0.639-1.983-0.949c-0.638-0.287-1.281-0.539-1.924-0.759     c-2.574-0.876-5.074-1.298-7.291-1.559c-2.224-0.243-4.187-0.271-5.792-0.165c-1.603,0.112-2.862,0.33-3.653,0.666     c-0.392,0.168-0.666,0.371-0.772,0.566c-0.113,0.193-0.073,0.324-0.083,0.32c0.01,0.004-0.043-0.123,0.055-0.334     c0.093-0.215,0.359-0.453,0.747-0.661c0.781-0.417,2.041-0.769,3.663-0.979c1.623-0.217,3.613-0.324,5.896-0.229     c2.281,0.094,4.863,0.407,7.602,1.193c0.684,0.197,1.376,0.43,2.072,0.702c0.728,0.28,1.354,0.604,2.037,0.882     c1.361,0.566,2.8,1.093,4.299,1.58c3,0.963,6.215,1.849,9.584,2.547c3.369,0.688,6.882,1.263,10.464,1.51     c3.569,0.227,7.247,0.209,10.696-0.604c1.711-0.415,3.359-1.062,4.69-2.064c1.342-0.977,2.312-2.371,2.72-3.93     c0.805-3.313,0.235-6.876-1.405-9.718c-1.629-2.881-4.178-5.06-6.823-6.65c-2.676-1.581-5.491-2.589-8.151-3.231     c-5.35-1.279-10.04-1.078-13.228-0.672c-1.602,0.217-2.85,0.453-3.697,0.651C49.93,92.385,49.479,92.492,49.479,92.492z"/>
		</g>
	</g>
	<g>
		
			<linearGradient id="SVGID_6_" gradientUnits="userSpaceOnUse" x1="-351.8511" y1="170.0977" x2="-199.0053" y2="246.779" gradientTransform="matrix(-0.9573 0.2892 0.2892 0.9573 -325.3877 16.9785)">
			<stop offset="0" style="stop-color:#F1EFEA"/>
			<stop offset="0.6407" style="stop-color:#827A7D"/>
		</linearGradient>
		<path fill="url(#SVGID_6_)" d="M14.023,107.313c5.877-16.959,24.566-31.68,37.073-30.83c12.51,0.85,18.091,8.395,16.813,14.553    c-1.277,6.156-14.381,15.014-30.031,16.16c-15.652,1.146-22.313,5.221-22.313,5.221L14.023,107.313z"/>
		<g>
			<path fill="#8A8181" d="M30.772,83.803c0,0,0.31-0.301,0.892-0.867c0.586-0.56,1.486-1.353,2.706-2.266     c1.242-0.881,2.814-1.877,4.754-2.77c1.937-0.885,4.23-1.707,6.842-2.147c2.604-0.439,5.521-0.536,8.539,0     c3.013,0.512,6.129,1.753,8.809,3.851c2.694,2.084,4.778,5.133,5.78,8.605c0.519,1.766,0.538,3.788-0.087,5.608     c-0.623,1.824-1.784,3.372-3.093,4.649c-2.659,2.553-5.876,4.224-9.086,5.537c-3.227,1.301-6.499,2.27-9.712,2.961     c-3.212,0.689-6.351,1.186-9.355,1.415c-1.502,0.116-2.969,0.183-4.396,0.171c-1.467-0.018-2.721-0.135-3.985-0.001     c-2.517,0.214-4.799,0.837-6.771,1.496c-1.971,0.677-3.632,1.45-4.931,2.2c-1.294,0.753-2.25,1.467-2.756,2.088     c-0.252,0.309-0.376,0.599-0.382,0.806c-0.005,0.208,0.071,0.304,0.063,0.304c0.008-0.001-0.078-0.087-0.095-0.303     c-0.015-0.217,0.086-0.535,0.315-0.879c0.459-0.691,1.358-1.525,2.627-2.379c1.267-0.859,2.896-1.771,4.861-2.611     c1.963-0.842,4.282-1.596,6.932-1.966c0.664-0.089,1.342-0.153,2.051-0.173c0.71-0.014,1.366,0.008,2.055-0.02     c1.373-0.041,2.797-0.16,4.255-0.328c2.916-0.356,5.983-0.865,9.098-1.625c3.109-0.768,6.295-1.693,9.377-2.977     c3.057-1.295,6.107-2.873,8.477-5.119c1.169-1.121,2.137-2.427,2.647-3.874c0.524-1.442,0.559-3.007,0.159-4.519     c-0.841-3.097-2.664-5.873-5.045-7.837c-2.382-1.981-5.245-3.206-8.065-3.794c-2.826-0.615-5.617-0.631-8.141-0.307     c-2.535,0.289-4.806,0.971-6.743,1.734c-1.94,0.772-3.539,1.67-4.812,2.475C33.296,81.77,32.348,82.48,31.723,83     C31.103,83.523,30.772,83.803,30.772,83.803z"/>
		</g>
	</g>
</g>
</svg>